# AST/ASF file generated using VICON BodyLanguage
# -----------------------------------------------
:version 1.10
:name VICON
:units
  mass 1.0
  length 0.45
  angle deg
:documentation
   .ast/.asf automatically generated from VICON data using
   VICON BodyBuilder and BodyLanguage model FoxedUp or BRILLIANT.MOD
:root
   order TX TY TZ RX RY RZ
   axis XYZ
   position 0 0 0  
   orientation 0 0 0 
:bonedata
  begin
     id 1 
     name lhipjoint
     direction 0.714689 -0.624256 0.315473 
     length 2.45343 
     axis 0 0 0  XYZ
  end
  begin
     id 2 
     name lfemur
     direction 0.34202 -0.939693 0  
     length 6.59069  
     axis 0 0 20  XYZ
    dof rx ry rz
    limits (-160.0 20.0)
           (-70.0 70.0)
           (-60.0 70.0)
  end
  begin
     id 3 
     name ltibia
     direction 0.34202 -0.939693 0   
     length 6.73476   
     axis 0 0 20   XYZ
    dof rx
    limits (-10.0 170.0)
  end
  begin
     id 4 
     name lfoot
     direction 0.0718085 -0.197292 0.977711   
     length 1.52607   
     axis -90 7.62852e-016 20   XYZ
    dof rx rz
    limits (-45.0 90.0)
           (-70.0 20.0)
  end
  begin
     id 5 
     name ltoes
     direction 1.53553e-011 -4.22024e-011 1   
     length 0.777832   
     axis -90 7.62852e-016 20   XYZ
    dof rx
    limits (-90.0 20.0)
  end
  begin
     id 6 
     name rhipjoint
     direction -0.727419 -0.612432 0.309497   
     length 2.50079  
     axis 0 0 0  XYZ 
  end
  begin
     id 7 
     name rfemur
     direction -0.34202 -0.939693 0   
     length 6.51665   
     axis 0 0 -20   XYZ
    dof rx ry rz
    limits (-160.0 20.0)
           (-70.0 70.0)
           (-70.0 60.0)
  end
  begin
     id 8 
     name rtibia
     direction -0.34202 -0.939693 0   
     length 6.48919   
     axis 0 0 -20   XYZ
    dof rx
    limits (-10.0 170.0)
 end
 begin
     id 9 
     name rfoot
     direction -0.112205 -0.308282 0.944655   
     length 1.68717  
     axis -90 -7.62852e-016 -20   XYZ
    dof rx rz
    limits (-45.0 90.0)
           (-20.0 70.0)
  end
  begin
     id 10 
     name rtoes
     direction -1.53583e-011 -4.21993e-011 1   
     length 0.846859   
     axis -90 -7.62852e-016 -20   XYZ
    dof rx
    limits (-90.0 20.0)
  end
  begin
     id 11 
     name lowerback
     direction -0.00119603 0.996364 -0.0851956   
     length 1.67242   
     axis 0 0 0   XYZ
    dof rx ry rz
    limits (-20.0 45.0)
           (-30.0 30.0)
           (-30.0 30.0)
  end
  begin
     id 12 
     name upperback
     direction -0.00531001 0.998318 0.0577248   
     length 1.64819   
     axis 0 0 0   XYZ
    dof rx ry rz
    limits (-20.0 45.0)
           (-30.0 30.0)
           (-30.0 30.0)
  end
  begin
     id 13 
     name thorax
     direction -0.00653676 0.995132 0.0983291   
     length 1.67429   
     axis 0 0 0   XYZ
    dof rx ry rz
    limits (-20.0 45.0)
           (-30.0 30.0)
           (-30.0 30.0)
  end
  begin
     id 14 
     name lowerneck
     direction 0.0141424 0.999886 0.00525412   
     length 1.59623   
     axis 0 0 0   XYZ
    dof rx ry rz
    limits (-20.0 45.0)
           (-30.0 30.0)
           (-30.0 30.0)
  end
  begin
     id 15 
     name upperneck
     direction -0.0640064 0.987178 -0.146232   
     length 1.59576   
     axis 0 0 0   XYZ
    dof rx ry rz
    limits (-20.0 45.0)
           (-30.0 30.0)
           (-30.0 30.0)
  end
  begin
     id 16
     name head
     direction -0.0222942 0.998496 -0.0500859  
     length 1.60959  
     axis 0 0 0   XYZ
    dof rx ry rz
    limits (-20.0 45.0)
           (-30.0 30.0)
           (-30.0 30.0)
  end
  begin
     id 17 
     name lclavicle
     direction 0.908549 0.392612 0.142806  
     length 2.80649  
     axis 0 0 0   XYZ
    dof ry rz
    limits (-20.0 10.0)
           (0.0 20.0)
  end
  begin
     id 18 
     name lhumerus
     direction 1 -4.48968e-011 1.08832e-028   
     length 4.2884   
     axis -180 -30 -90   XYZ
    dof rx ry rz
    limits (-60.0 90.0)
           (-90.0 90.0)
           (-90.0 90.0)
  end
  begin
     id 19
     name lradius
     direction 1 -4.48952e-011 -3.02642e-028   
     length 3.06552   
     axis -180 -30 -90   XYZ
    dof rx
    limits (-10.0 170.0)
  end
  begin
     id 20
     name lwrist
     direction 1 -4.49014e-011 1.58672e-027   
     length 1.53276   
     axis -1.65735e-015 90 90   XYZ
    dof ry
    limits (-180.0 0.0)
 end
  begin
     id 21 
     name lhand
     direction 1 -4.48928e-011 3.17344e-027   
     length 0.753045   
     axis -2.02492e-015 90 90   XYZ
    dof rx rz
    limits (-90.0 90.0)
           (-45.0 45.0)
  end
  begin
     id 22 
     name lfingers
     direction 1 -4.48958e-011 6.34687e-027   
     length 0.607124   
     axis -4.04985e-015 90 90   XYZ
    dof rx
    limits (0.0 90.0)
  end
  begin
     id 23
     name lthumb
     direction 0.707107 -6.34905e-011 0.707107   
     length 0.871712   
     axis -90 45 2.85299e-015   XYZ
    dof rx rz
    limits (-45.0 45.0)
           (-45.0 45.0)
  end
  begin
     id 24 
     name rclavicle
     direction -0.885098 0.45949 0.0739604   
     length 2.9478  
     axis 0 0 0   XYZ 
    dof ry rz
    limits (-10.0 20.0)
           (-20.0 0.0)
  end
  begin
     id 25 
     name rhumerus
     direction -1 -4.4898e-011 -2.61739e-027  
     length 4.52172   
     axis -180 30 90   XYZ
    dof rx ry rz
    limits (-90.0 60.0)
           (-90.0 90.0)
           (-90.0 90.0)
  end
  begin
     id 26 
     name rradius
     direction -1 -4.48945e-011 9.02552e-028   
     length 2.8914   
     axis -180 30 90   XYZ
    dof rx
    limits (-10.0 170.0)
  end
  begin
     id 27 
     name rwrist
     direction -1 -4.49018e-011 1.58672e-027   
     length 1.4457   
     axis -1.65735e-015 -90 -90   XYZ
    dof ry
    limits (-180.0 0.0)
  end
  begin
     id 28
     name rhand
     direction -1 -4.48825e-011 3.17344e-027   
     length 0.680541   
     axis -2.02492e-015 -90 -90   XYZ
    dof rx rz
    limits (-90.0 90.0)
           (-45.0 45.0)
  end
  begin
     id 29
     name rfingers
     direction -1 -4.49067e-011 6.34687e-027   
     length 0.54867   
     axis -4.04985e-015 -90 -90   XYZ
    dof rx
    limits (0.0 90.0)
  end
  begin
     id 30
     name rthumb
     direction -0.707107 -6.34833e-011 0.707107   
     length 0.787783   
     axis -90 -45 -2.85299e-015   XYZ
    dof rx rz
    limits (-45.0 45.0)
           (-45.0 45.0)
  end
:hierarchy
  begin
    root lhipjoint rhipjoint lowerback
    lhipjoint lfemur
    lfemur ltibia
    ltibia lfoot
    lfoot ltoes
    rhipjoint rfemur
    rfemur rtibia
    rtibia rfoot
    rfoot rtoes
    lowerback upperback
    upperback thorax
    thorax lowerneck lclavicle rclavicle
    lowerneck upperneck
    upperneck head
    lclavicle lhumerus
    lhumerus lradius
    lradius lwrist
    lwrist lhand lthumb
    lhand lfingers
    rclavicle rhumerus
    rhumerus rradius
    rradius rwrist
    rwrist rhand rthumb
    rhand rfingers
  end

#!OML:ASF E:\emotionWalksFemale\Project 1\Capture day 1\Session 1\Female1.ASF
:FULLY-SPECIFIED
:DEGREES
97
root 9.07116 15.5062 22.3912 180.032 1.8121 -179.185
lowerback 7.83541 1.5668 1.24345
upperback -4.45354 2.33006 -0.0243803
thorax -9.07605 1.0886 -1.09121
lowerneck -8.0769 -2.07256 -5.8544
upperneck 10.2554 -2.82174 5.58829
head 4.55332 -1.34073 2.49812
rclavicle -1.66296e-014 -3.18055e-015
rhumerus -49.5327 19.9622 -102.434
rradius 34.1164
rwrist 20.1225
rhand -5.53481 -53.1235
rfingers 7.12502
rthumb 20.2795 -82.0848
lclavicle -1.66296e-014 -3.18055e-015
lhumerus -44.6609 -6.79176 92.2042
lradius 36.0264
lwrist -10.9176
lhand -3.38143 -39.8093
lfingers 7.12502
lthumb 22.3479 -11.0819
rfemur 1.95059 17.9263 27.3397
rtibia 13.8058
rfoot -15.6585 -32.0194
rtoes 2.4388
lfemur -4.19226 -23.8282 -23.5286
ltibia 22.6551
lfoot -19.8093 21.5466
ltoes -39.0289
98
root 9.07075 15.5096 22.3913 180.177 1.96341 -179.187
lowerback 7.68894 1.63113 1.20477
upperback -4.48597 2.41412 -0.0191861
thorax -9.02488 1.13421 -1.07252
lowerneck -8.02792 -2.10125 -5.91088
upperneck 10.136 -2.85878 5.67271
head 4.51272 -1.35599 2.53138
rclavicle -2.39908e-014 -5.1684e-015
rhumerus -49.4646 19.8172 -102.308
rradius 34.2173
rwrist 19.6277
rhand -5.13007 -53.2504
rfingers 7.12502
rthumb 20.6684 -82.1699
lclavicle -2.39908e-014 -5.1684e-015
lhumerus -44.6239 -6.70776 92.2049
lradius 35.97
lwrist -10.9242
lhand -3.40828 -39.8509
lfingers 7.12502
lthumb 22.3221 -11.1203
rfemur 1.74985 17.952 27.264
rtibia 13.829
rfoot -15.4297 -31.9444
rtoes 1.72311
lfemur -4.3425 -23.7628 -23.4784
ltibia 22.6381
lfoot -19.7583 21.6243
ltoes -39.2892
99
root 9.07049 15.5063 22.39 180.122 1.8394 -179.203
lowerback 7.67449 1.5873 1.14615
upperback -4.4412 2.34774 0.00975921
thorax -8.97253 1.10641 -0.997262
lowerneck -8.04325 -2.12347 -5.97298
upperneck 10.0671 -2.87887 5.71029
head 4.49687 -1.36461 2.55175
rclavicle -1.05729e-014 1.49089e-015
rhumerus -49.5376 19.8917 -102.348
rradius 34.1192
rwrist 20.1335
rhand -5.51649 -52.9256
rfingers 7.12502
rthumb 20.2971 -81.8851
lclavicle -1.05729e-014 1.49089e-015
lhumerus -44.6458 -6.58236 92.2167
lradius 35.9761
lwrist -10.9498
lhand -3.198 -39.8376
lfingers 7.12502
lthumb 22.5239 -11.1313
rfemur 1.8233 17.9224 27.2855
rtibia 13.8602
rfoot -15.6129 -32.0115
rtoes 1.96646
lfemur -4.28753 -23.7151 -23.5081
ltibia 22.6372
lfoot -19.6108 21.5294
ltoes -39.5345
100
root 9.07185 15.5067 22.3916 180.157 2.05089 -179.212
lowerback 7.67995 1.64397 1.07764
upperback -4.45962 2.41797 0.0197124
thorax -8.99749 1.14507 -0.959665
lowerneck -8.09041 -2.12233 -5.99169
upperneck 10.0979 -2.87653 5.73318
head 4.51464 -1.36224 2.56179
rclavicle -2.93518e-015 -5.46658e-016
rhumerus -49.5059 19.7894 -102.236
rradius 34.1407
rwrist 20.6224
rhand -4.69189 -53.0636
rfingers 7.12502
rthumb 21.0894 -81.9367
lclavicle -2.93518e-015 -5.46658e-016
lhumerus -44.7524 -6.5484 92.2063
lradius 36.0229
lwrist -10.884
lhand -2.72748 -39.5567
lfingers 7.12502
lthumb 22.9755 -10.9059
rfemur 1.71091 17.9476 27.235
rtibia 13.9323
rfoot -15.6921 -31.8439
rtoes 2.0081
lfemur -4.29562 -23.6384 -23.5117
ltibia 22.6097
lfoot -19.6499 21.6914
ltoes -39.5314
101
root 9.07144 15.5059 22.3896 180.058 2.14046 -179.225
lowerback 7.75945 1.65792 1.06093
upperback -4.41314 2.43193 0.0236421
thorax -8.99415 1.15156 -0.949873
lowerneck -8.16592 -2.10315 -6.0589
upperneck 10.0977 -2.84544 5.80959
head 4.52732 -1.34342 2.59815
rclavicle -4.45712e-015 -1.49089e-015
rhumerus -49.4201 19.711 -102.105
rradius 34.2476
rwrist 20.7432
rhand -3.84169 -53.248
rfingers 7.12502
rthumb 21.906 -82.0279
lclavicle -4.45712e-015 -1.49089e-015
lhumerus -44.7476 -6.49557 92.1698
lradius 35.9819
lwrist -10.8759
lhand -2.5138 -39.2893
lfingers 7.12502
lthumb 23.1805 -10.6642
rfemur 1.78757 17.9938 27.2501
rtibia 14.0177
rfoot -15.8276 -31.8135
rtoes 2.50374
lfemur -4.13167 -23.6979 -23.5968
ltibia 22.5832
lfoot -19.8972 21.764
ltoes -39.1039
102
root 9.06925 15.5046 22.3832 179.961 2.14909 -179.246
lowerback 7.76623 1.64109 1.07844
upperback -4.35775 2.40702 0.018246
thorax -8.93725 1.13767 -0.960358
lowerneck -8.24254 -2.08492 -6.1305
upperneck 10.0409 -2.81225 5.89895
head 4.52296 -1.32217 2.63936
rclavicle -5.1684e-015 -7.95139e-016
rhumerus -49.3932 19.774 -102.142
rradius 34.2885
rwrist 20.4543
rhand -3.88874 -53.374
rfingers 7.12502
rthumb 21.8608 -82.1591
lclavicle -5.1684e-015 -7.95139e-016
lhumerus -44.7524 -6.37767 92.1131
lradius 35.9419
lwrist -10.978
lhand -2.43445 -39.3469
lfingers 7.12502
lthumb 23.2566 -10.7313
rfemur 1.9079 18.0424 27.2666
rtibia 14.0681
rfoot -15.8818 -31.844
rtoes 2.23881
lfemur -3.95809 -23.7732 -23.7014
ltibia 22.5593
lfoot -19.9378 21.7857
ltoes -38.7719
103
root 9.06668 15.5033 22.3795 179.91 2.00539 -179.268
lowerback 7.7801 1.58195 1.11353
upperback -4.35288 2.33027 0.00478415
thorax -8.93974 1.09756 -0.982967
lowerneck -8.23324 -2.08386 -6.24571
upperneck 9.97071 -2.80543 6.01391
head 4.50264 -1.31609 2.69445
rclavicle 2.08817e-014 3.23025e-015
rhumerus -49.3648 19.6352 -102.013
rradius 34.2896
rwrist 21.2571
rhand -2.94434 -53.6607
rfingers 7.12502
rthumb 22.7674 -82.3372
lclavicle 2.08817e-014 3.23025e-015
lhumerus -44.8795 -6.2735 92.0892
lradius 35.9589
lwrist -11.0978
lhand -2.28723 -39.4145
lfingers 7.12502
lthumb 23.3979 -10.8169
rfemur 1.97759 17.9959 27.2708
rtibia 14.0969
rfoot -15.897 -31.9483
rtoes 1.56672
lfemur -3.90384 -23.8075 -23.7496
ltibia 22.5503
lfoot -19.7977 21.6945
ltoes -38.8196
104
root 9.06847 15.5046 22.3798 180.012 2.22005 -179.245
lowerback 7.71885 1.65296 1.07925
upperback -4.39154 2.42554 0.0216173
thorax -8.94596 1.14762 -0.959252
lowerneck -8.25222 -2.09631 -6.29579
upperneck 9.92357 -2.81272 6.03349
head 4.49287 -1.31914 2.70809
rclavicle 1.28962e-014 2.88238e-015
rhumerus -49.4724 19.7306 -102.168
rradius 34.1928
rwrist 20.7744
rhand -4.28123 -53.4125
rfingers 7.12502
rthumb 21.4839 -82.2411
lclavicle 1.28962e-014 2.88238e-015
lhumerus -44.9168 -6.25366 92.0914
lradius 35.8862
lwrist -11.1218
lhand -2.43355 -39.4329
lfingers 7.12502
lthumb 23.2575 -10.8174
rfemur 1.81692 18.0262 27.2343
rtibia 14.124
rfoot -15.7861 -31.7776
rtoes 1.34891
lfemur -3.99465 -23.7173 -23.6853
ltibia 22.5368
lfoot -19.967 21.7147
ltoes -38.4893
105
root 9.06861 15.5039 22.3804 180.016 2.31292 -179.217
lowerback 7.74547 1.6786 1.09655
upperback -4.3912 2.46237 0.0255847
thorax -8.95998 1.16428 -0.971279
lowerneck -8.27779 -2.11206 -6.22823
upperneck 9.86741 -2.82689 5.95627
head 4.47899 -1.32625 2.67179
rclavicle -1.74837e-014 -2.93207e-015
rhumerus -49.3844 19.5398 -101.977
rradius 34.2193
rwrist 21.5941
rhand -3.19227 -53.5908
rfingers 7.12502
rthumb 22.5294 -82.2963
lclavicle -1.74837e-014 -2.93207e-015
lhumerus -44.8532 -6.30024 92.0845
lradius 35.7714
lwrist -11.0494
lhand -2.60821 -39.4033
lfingers 7.12502
lthumb 23.0899 -10.7668
rfemur 1.79619 18.0648 27.2525
rtibia 14.1321
rfoot -15.7054 -31.7293
rtoes 1.30752
lfemur -3.98644 -23.6538 -23.6519
ltibia 22.5277
lfoot -20.0577 21.6885
ltoes -38.2128
106
root 9.06817 15.5035 22.3807 179.99 2.3336 -179.241
lowerback 7.82105 1.67998 1.06716
upperback -4.40792 2.46155 0.0191662
thorax -9.02367 1.16451 -0.964712
lowerneck -8.20248 -2.11937 -6.22576
upperneck 9.74347 -2.83245 5.94618
head 4.42874 -1.32953 2.66819
rclavicle 9.62863e-017 1.44119e-015
rhumerus -49.551 19.6936 -102.209
rradius 34.1589
rwrist 21.0195
rhand -4.45827 -53.3469
rfingers 7.12502
rthumb 21.3138 -82.1948
lclavicle 9.62863e-017 1.44119e-015
lhumerus -44.9153 -6.36214 92.1076
lradius 35.8021
lwrist -10.9738
lhand -2.51508 -39.3267
lfingers 7.12502
lthumb 23.1793 -10.7013
rfemur 1.82888 18.118 27.2392
rtibia 14.1305
rfoot -15.6196 -31.8055
rtoes 1.30858
lfemur -3.95459 -23.6462 -23.684
ltibia 22.5181
lfoot -20.0555 21.6744
ltoes -37.9459
107
root 9.06799 15.5044 22.3805 180.01 2.34387 -179.267
lowerback 7.8651 1.6813 1.04883
upperback -4.44462 2.46142 -0.00759013
thorax -9.08926 1.16423 -0.985403
lowerneck -8.16983 -2.11877 -6.27085
upperneck 9.6737 -2.83524 6.04099
head 4.40404 -1.32761 2.70498
rclavicle 9.28697e-015 1.78906e-015
rhumerus -49.4649 19.431 -102.007
rradius 34.1556
rwrist 21.9453
rhand -3.21948 -53.4342
rfingers 7.12502
rthumb 22.5033 -82.143
lclavicle 9.28697e-015 1.78906e-015
lhumerus -45.0115 -6.4544 92.1326
lradius 35.8067
lwrist -10.9243
lhand -2.45986 -39.4424
lfingers 7.12502
lthumb 23.2323 -10.8238
rfemur 1.82409 18.1388 27.2116
rtibia 14.1128
rfoot -15.68 -31.7951
rtoes 1.56183
lfemur -3.97876 -23.6799 -23.6998
ltibia 22.5242
lfoot -20.009 21.6963
ltoes -37.9024
108
root 9.068 15.5048 22.38 180.016 2.30711 -179.256
lowerback 7.88402 1.66425 1.0894
upperback -4.46381 2.44197 -0.038234
thorax -9.11876 1.15106 -1.03883
lowerneck -8.172 -2.12198 -6.26354
upperneck 9.65101 -2.84617 6.09726
head 4.39881 -1.32974 2.72048
rclavicle -5.6343e-015 1.63997e-015
rhumerus -49.5602 19.5756 -102.289
rradius 34.0873
rwrist 20.9794
rhand -4.44183 -53.4038
rfingers 7.12502
rthumb 21.3296 -82.25
lclavicle -5.6343e-015 1.63997e-015
lhumerus -45.0259 -6.52069 92.1154
lradius 35.6872
lwrist -10.9565
lhand -2.69178 -39.5676
lfingers 7.12502
lthumb 23.0097 -10.921
rfemur 1.84495 18.1038 27.2294
rtibia 14.0744
rfoot -15.7338 -31.7434
rtoes 1.60522
lfemur -3.98575 -23.691 -23.6848
ltibia 22.5285
lfoot -19.8054 21.7673
ltoes -38.3459
109
root 9.06621 15.5034 22.3788 179.925 2.10286 -179.243
lowerback 7.98136 1.58329 1.14356
upperback -4.4524 2.33909 -0.0397274
thorax -9.16381 1.09636 -1.05798
lowerneck -8.16535 -2.10366 -6.2821
upperneck 9.62033 -2.8207 6.12552
head 4.38734 -1.31618 2.73398
rclavicle 1.60332e-014 4.22417e-015
rhumerus -49.5317 19.5322 -102.227
rradius 34.1409
rwrist 21.2603
rhand -3.37654 -53.7955
rfingers 7.12502
rthumb 22.3525 -82.5225
lclavicle 1.60332e-014 4.22417e-015
lhumerus -45.0471 -6.46485 92.0924
lradius 35.5941
lwrist -11.0484
lhand -2.92006 -39.624
lfingers 7.12502
lthumb 22.7907 -10.9503
rfemur 1.98753 18.0246 27.2927
rtibia 14.0276
rfoot -15.6249 -31.9122
rtoes 1.37421
lfemur -3.9187 -23.7081 -23.7033
ltibia 22.5518
lfoot -19.7027 21.7398
ltoes -39.0763
110
root 9.0677 15.5058 22.3784 180.069 2.43553 -179.252
lowerback 7.92637 1.67185 1.12081
upperback -4.5316 2.45734 -0.0763174
thorax -9.21461 1.15503 -1.10264
lowerneck -8.1591 -2.07214 -6.19621
upperneck 9.61107 -2.78586 6.09597
head 4.37965 -1.29782 2.713
rclavicle -1.0635e-014 -1.14301e-015
rhumerus -49.5066 19.5098 -102.266
rradius 34.1611
rwrist 21.5355
rhand -2.51947 -54.005
rfingers 7.12502
rthumb 23.1751 -82.6308
lclavicle -1.0635e-014 -1.14301e-015
lhumerus -45.091 -6.40051 91.976
lradius 35.5206
lwrist -11.1239
lhand -2.76236 -39.5992
lfingers 7.12502
lthumb 22.942 -10.9442
rfemur 1.78648 18.1269 27.1943
rtibia 14.0057
rfoot -15.1764 -31.7762
rtoes 1.03236
lfemur -4.0512 -23.5798 -23.6739
ltibia 22.5679
lfoot -20.0535 21.7715
ltoes -38.2759
